<svg viewBox="0 0 39 30" fill="none" xmlns="http://www.w3.org/2000/svg">
<path d="M36.5625 29.25C36.5625 29.25 39 29.25 39 26.8125C39 24.375 36.5625 17.0625 26.8125 17.0625C17.0625 17.0625 14.625 24.375 14.625 26.8125C14.625 29.25 17.0625 29.25 17.0625 29.25H36.5625ZM17.1161 26.8125C17.0981 26.81 17.0802 26.8068 17.0625 26.8028C17.0649 26.1593 17.4696 24.2921 18.915 22.6103C20.2605 21.0332 22.6249 19.5 26.8125 19.5C30.9977 19.5 33.3621 21.0356 34.71 22.6103C36.1554 24.2921 36.5576 26.1617 36.5625 26.8028L36.543 26.8076C36.5317 26.8095 36.5203 26.8112 36.5089 26.8125H17.1161ZM26.8125 12.1875C28.1054 12.1875 29.3454 11.6739 30.2596 10.7596C31.1739 9.84541 31.6875 8.60543 31.6875 7.3125C31.6875 6.01957 31.1739 4.77959 30.2596 3.86535C29.3454 2.95111 28.1054 2.4375 26.8125 2.4375C25.5196 2.4375 24.2796 2.95111 23.3654 3.86535C22.4511 4.77959 21.9375 6.01957 21.9375 7.3125C21.9375 8.60543 22.4511 9.84541 23.3654 10.7596C24.2796 11.6739 25.5196 12.1875 26.8125 12.1875ZM34.125 7.3125C34.125 8.27279 33.9359 9.22368 33.5684 10.1109C33.2009 10.9981 32.6622 11.8042 31.9832 12.4832C31.3042 13.1622 30.4981 13.7009 29.6109 14.0684C28.7237 14.4359 27.7728 14.625 26.8125 14.625C25.8522 14.625 24.9013 14.4359 24.0141 14.0684C23.1269 13.7009 22.3208 13.1622 21.6418 12.4832C20.9628 11.8042 20.4241 10.9981 20.0566 10.1109C19.6891 9.22368 19.5 8.27279 19.5 7.3125C19.5 5.3731 20.2704 3.51314 21.6418 2.14178C23.0131 0.770422 24.8731 0 26.8125 0C28.7519 0 30.6119 0.770422 31.9832 2.14178C33.3546 3.51314 34.125 5.3731 34.125 7.3125ZM16.9065 17.745C15.9315 17.438 14.9264 17.2361 13.9084 17.1429C13.3364 17.0885 12.7621 17.0617 12.1875 17.0625C2.4375 17.0625 0 24.375 0 26.8125C0 28.4383 0.811688 29.25 2.4375 29.25H12.714C12.3527 28.489 12.1724 27.6548 12.1875 26.8125C12.1875 24.3506 13.1064 21.8351 14.8444 19.734C15.4367 19.0174 16.1265 18.3471 16.9065 17.745ZM11.9925 19.5C10.5499 21.6676 9.77057 24.2088 9.75 26.8125H2.4375C2.4375 26.1787 2.83725 24.3019 4.29 22.6103C5.61844 21.06 7.92675 19.5488 11.9925 19.5024V19.5ZM3.65625 8.53125C3.65625 6.59185 4.42667 4.73189 5.79803 3.36053C7.16939 1.98917 9.02935 1.21875 10.9688 1.21875C12.9081 1.21875 14.7681 1.98917 16.1395 3.36053C17.5108 4.73189 18.2812 6.59185 18.2812 8.53125C18.2812 10.4706 17.5108 12.3306 16.1395 13.702C14.7681 15.0733 12.9081 15.8438 10.9688 15.8438C9.02935 15.8438 7.16939 15.0733 5.79803 13.702C4.42667 12.3306 3.65625 10.4706 3.65625 8.53125ZM10.9688 3.65625C9.67582 3.65625 8.43584 4.16986 7.5216 5.0841C6.60736 5.99834 6.09375 7.23832 6.09375 8.53125C6.09375 9.82418 6.60736 11.0642 7.5216 11.9784C8.43584 12.8926 9.67582 13.4062 10.9688 13.4062C12.2617 13.4062 13.5017 12.8926 14.4159 11.9784C15.3301 11.0642 15.8438 9.82418 15.8438 8.53125C15.8438 7.23832 15.3301 5.99834 14.4159 5.0841C13.5017 4.16986 12.2617 3.65625 10.9688 3.65625Z" fill="white"/>
</svg>
