<svg viewBox="0 0 30 28" fill="none" xmlns="http://www.w3.org/2000/svg">
<path d="M2.5 0H4.9875C6.305 0 7.385 1.02 7.48 2.3125L7.4875 2.5V25C7.48707 25.6306 7.24845 26.2378 6.81941 26.7C6.39038 27.1622 5.8026 27.4452 5.17375 27.4925L4.98625 27.5H2.5C1.86958 27.4996 1.26256 27.2611 0.800416 26.8324C0.338267 26.4036 0.0550728 25.8161 0.00750005 25.1875L0 25V2.5C0 1.1825 1.02 0.1025 2.3125 0.00625014L2.5 0H4.9875H2.5ZM11.2437 0H13.7375C15.0538 0 16.135 1.02 16.23 2.3125L16.2375 2.5V25C16.2371 25.6306 15.9984 26.2378 15.5694 26.7C15.1404 27.1622 14.5526 27.4452 13.9237 27.4925L13.7362 27.5H11.2437C10.613 27.5002 10.0055 27.262 9.54307 26.8331C9.08059 26.4043 8.7973 25.8164 8.75 25.1875L8.74375 25V2.5C8.74355 1.86928 8.98176 1.26179 9.41062 0.799315C9.83948 0.336838 10.4273 0.0535541 11.0563 0.00625014L11.2437 0H13.7375H11.2437ZM22.6625 2.5325C23.7175 2.5325 24.6825 3.205 25.0288 4.2325L25.0863 4.42875L29.9113 23.7825C30.0643 24.3945 29.9803 25.0417 29.6762 25.5944C29.372 26.1471 28.8702 26.5643 28.2713 26.7625L28.0912 26.8138L25.6375 27.4263C25.0285 27.5773 24.385 27.4942 23.8345 27.1932C23.2839 26.8922 22.8665 26.3954 22.665 25.8013L22.6075 25.6038L17.7825 6.25C17.6299 5.63802 17.7142 4.99096 18.0186 4.43854C18.3229 3.88612 18.8249 3.46916 19.4237 3.27125L19.6025 3.21875L22.0563 2.6075C22.2588 2.5575 22.4625 2.5325 22.6625 2.5325ZM4.9875 1.875H2.5C2.35385 1.87544 2.21243 1.92687 2.10016 2.02044C1.98788 2.114 1.91178 2.24382 1.885 2.3875L1.875 2.5V25C1.875 25.305 2.09625 25.5625 2.3875 25.615L2.5 25.625H4.9875C5.29375 25.625 5.55 25.4025 5.6025 25.1125L5.6125 25V2.5C5.61231 2.35378 5.56096 2.21224 5.46735 2.09992C5.37374 1.98759 5.24378 1.91156 5.1 1.885L4.9875 1.875ZM13.7375 1.875H11.2437C11.0975 1.87519 10.956 1.92655 10.8437 2.02015C10.7313 2.11376 10.6553 2.24372 10.6287 2.3875L10.6187 2.5V25C10.6187 25.305 10.84 25.5625 11.1312 25.615L11.2437 25.625H13.7375C14.0437 25.625 14.3 25.4025 14.3525 25.1125L14.3625 25V2.5C14.3623 2.35378 14.311 2.21224 14.2173 2.09992C14.1237 1.98759 13.9938 1.91156 13.85 1.885L13.7375 1.875ZM22.6625 4.4075L22.5863 4.4125L22.5088 4.42625L20.0562 5.03875C19.9143 5.07415 19.7893 5.15821 19.7029 5.27629C19.6166 5.39438 19.5744 5.53901 19.5837 5.685L19.6012 5.795L24.4263 25.15C24.5075 25.475 24.7975 25.625 25.0312 25.625L25.1087 25.6213L25.1838 25.605L27.6375 24.9938C27.7792 24.9584 27.9041 24.8745 27.9904 24.7567C28.0767 24.6389 28.119 24.4945 28.11 24.3488L28.0925 24.2362L23.2675 4.88125C23.2342 4.74597 23.1565 4.62577 23.0468 4.53989C22.9371 4.454 22.8018 4.40738 22.6625 4.4075Z" fill="white"/>
</svg>
