<svg width="32" height="32" viewBox="0 0 32 32" fill="none" xmlns="http://www.w3.org/2000/svg">
<path d="M8 0C5.80667 0 4 1.80667 4 4V22.6667H0V28C0 30.1933 1.80667 32 4 32H22.708C23.7598 31.9833 24.7633 31.5552 25.5033 30.8075C26.2432 30.0598 26.6609 29.052 26.6667 28V9.33333H32V4C32 1.80667 30.1933 0 28 0H8ZM8 2.66667H24.2507C24.0906 3.09326 24.0058 3.5444 24 4V28C24 28.7547 23.4213 29.3333 22.6667 29.3333C21.916 29.344 21.344 28.7493 21.3333 28L21.292 22.6667H6.66667V4C6.66667 3.24533 7.24533 2.66667 8 2.66667ZM28 2.66667C28.7547 2.66667 29.3333 3.24533 29.3333 4V6.66667H26.6667V4C26.6667 3.24533 27.2453 2.66667 28 2.66667ZM2.66667 25.3333H18.6667V28.0413C18.672 28.5 18.7667 28.9213 18.9173 29.3333H4C3.24533 29.3333 2.66667 28.7547 2.66667 28V25.3333Z" fill="white"/>
</svg>
